<mxfile host="app.diagrams.net" agent="Mozilla/5.0 (Windows NT 10.0; Win64; x64) AppleWebKit/537.36 (KHTML, like Gecko) Chrome/129.0.0.0 Safari/537.36" version="24.7.14">
  <diagram name="Page-1" id="zdLS6XzUSG3x8lp1yBCd">
    <mxGraphModel dx="1434" dy="841" grid="1" gridSize="10" guides="1" tooltips="1" connect="1" arrows="1" fold="1" page="1" pageScale="1" pageWidth="827" pageHeight="1169" background="none" math="0" shadow="0">
      <root>
        <mxCell id="0" />
        <mxCell id="1" parent="0" />
        <mxCell id="I01gEKsPp_aFatJLtKyl-5" value="" style="ellipse;whiteSpace=wrap;html=1;aspect=fixed;strokeWidth=2;fillColor=#030303;" parent="1" vertex="1">
          <mxGeometry x="400" y="120" width="40" height="40" as="geometry" />
        </mxCell>
        <mxCell id="I01gEKsPp_aFatJLtKyl-7" value="" style="ellipse;whiteSpace=wrap;html=1;aspect=fixed;strokeWidth=2;fillColor=#030303;" parent="1" vertex="1">
          <mxGeometry x="320" y="40" width="40" height="40" as="geometry" />
        </mxCell>
        <mxCell id="I01gEKsPp_aFatJLtKyl-8" value="" style="ellipse;whiteSpace=wrap;html=1;aspect=fixed;strokeWidth=2;fillColor=#030303;" parent="1" vertex="1">
          <mxGeometry x="560" y="80" width="40" height="40" as="geometry" />
        </mxCell>
        <mxCell id="I01gEKsPp_aFatJLtKyl-22" value="" style="endArrow=none;html=1;rounded=0;strokeWidth=2;strokeColor=#030303;endFill=0;" parent="1" source="I01gEKsPp_aFatJLtKyl-8" target="I01gEKsPp_aFatJLtKyl-7" edge="1">
          <mxGeometry width="50" height="50" relative="1" as="geometry">
            <mxPoint x="610" y="310" as="sourcePoint" />
            <mxPoint x="490" y="310" as="targetPoint" />
          </mxGeometry>
        </mxCell>
        <mxCell id="I01gEKsPp_aFatJLtKyl-23" value="" style="endArrow=none;html=1;rounded=0;strokeWidth=2;endFill=0;strokeColor=#030303;" parent="1" source="I01gEKsPp_aFatJLtKyl-8" target="I01gEKsPp_aFatJLtKyl-5" edge="1">
          <mxGeometry width="50" height="50" relative="1" as="geometry">
            <mxPoint x="530" y="70" as="sourcePoint" />
            <mxPoint x="410" y="70" as="targetPoint" />
          </mxGeometry>
        </mxCell>
        <mxCell id="I01gEKsPp_aFatJLtKyl-24" value="" style="endArrow=none;html=1;rounded=0;strokeWidth=2;strokeColor=#030303;endFill=0;" parent="1" source="I01gEKsPp_aFatJLtKyl-7" target="I01gEKsPp_aFatJLtKyl-5" edge="1">
          <mxGeometry width="50" height="50" relative="1" as="geometry">
            <mxPoint x="536" y="84" as="sourcePoint" />
            <mxPoint x="484" y="136" as="targetPoint" />
          </mxGeometry>
        </mxCell>
        <mxCell id="RA_EbAn50JD2a9bJy-9p-1" value="" style="ellipse;whiteSpace=wrap;html=1;aspect=fixed;strokeWidth=2;fillColor=#030303;" vertex="1" parent="1">
          <mxGeometry x="460" y="240" width="40" height="40" as="geometry" />
        </mxCell>
        <mxCell id="RA_EbAn50JD2a9bJy-9p-2" value="" style="endArrow=none;html=1;rounded=0;strokeWidth=2;endFill=0;strokeColor=#030303;" edge="1" parent="1" source="I01gEKsPp_aFatJLtKyl-8" target="RA_EbAn50JD2a9bJy-9p-1">
          <mxGeometry width="50" height="50" relative="1" as="geometry">
            <mxPoint x="536" y="84" as="sourcePoint" />
            <mxPoint x="484" y="136" as="targetPoint" />
          </mxGeometry>
        </mxCell>
        <mxCell id="RA_EbAn50JD2a9bJy-9p-3" value="" style="endArrow=none;html=1;rounded=0;strokeWidth=2;endFill=0;strokeColor=#030303;" edge="1" parent="1" source="I01gEKsPp_aFatJLtKyl-5" target="RA_EbAn50JD2a9bJy-9p-1">
          <mxGeometry width="50" height="50" relative="1" as="geometry">
            <mxPoint x="550" y="90" as="sourcePoint" />
            <mxPoint x="510" y="250" as="targetPoint" />
          </mxGeometry>
        </mxCell>
        <mxCell id="RA_EbAn50JD2a9bJy-9p-4" value="" style="ellipse;whiteSpace=wrap;html=1;aspect=fixed;strokeWidth=2;fillColor=#030303;" vertex="1" parent="1">
          <mxGeometry x="360" y="200" width="40" height="40" as="geometry" />
        </mxCell>
        <mxCell id="RA_EbAn50JD2a9bJy-9p-5" value="" style="endArrow=none;html=1;rounded=0;strokeWidth=2;endFill=0;strokeColor=#030303;" edge="1" parent="1" source="RA_EbAn50JD2a9bJy-9p-4" target="RA_EbAn50JD2a9bJy-9p-1">
          <mxGeometry width="50" height="50" relative="1" as="geometry">
            <mxPoint x="484" y="164" as="sourcePoint" />
            <mxPoint x="536" y="216" as="targetPoint" />
          </mxGeometry>
        </mxCell>
        <mxCell id="RA_EbAn50JD2a9bJy-9p-7" value="" style="endArrow=none;html=1;rounded=0;strokeWidth=2;endFill=0;strokeColor=#030303;" edge="1" parent="1" source="RA_EbAn50JD2a9bJy-9p-4" target="I01gEKsPp_aFatJLtKyl-5">
          <mxGeometry width="50" height="50" relative="1" as="geometry">
            <mxPoint x="410" y="230" as="sourcePoint" />
            <mxPoint x="530" y="230" as="targetPoint" />
          </mxGeometry>
        </mxCell>
        <mxCell id="RA_EbAn50JD2a9bJy-9p-8" value="" style="ellipse;whiteSpace=wrap;html=1;aspect=fixed;strokeWidth=2;fillColor=#030303;" vertex="1" parent="1">
          <mxGeometry x="200" y="240" width="40" height="40" as="geometry" />
        </mxCell>
        <mxCell id="RA_EbAn50JD2a9bJy-9p-9" value="" style="endArrow=none;html=1;rounded=0;strokeWidth=2;strokeColor=#030303;endFill=0;" edge="1" parent="1" source="RA_EbAn50JD2a9bJy-9p-8" target="I01gEKsPp_aFatJLtKyl-5">
          <mxGeometry width="50" height="50" relative="1" as="geometry">
            <mxPoint x="404" y="84" as="sourcePoint" />
            <mxPoint x="460" y="140" as="targetPoint" />
          </mxGeometry>
        </mxCell>
        <mxCell id="RA_EbAn50JD2a9bJy-9p-10" value="" style="ellipse;whiteSpace=wrap;html=1;aspect=fixed;strokeWidth=2;fillColor=#030303;" vertex="1" parent="1">
          <mxGeometry x="440" y="320" width="40" height="40" as="geometry" />
        </mxCell>
        <mxCell id="RA_EbAn50JD2a9bJy-9p-11" value="" style="endArrow=none;html=1;rounded=0;strokeWidth=2;strokeColor=#030303;endFill=0;" edge="1" parent="1" source="RA_EbAn50JD2a9bJy-9p-10" target="RA_EbAn50JD2a9bJy-9p-4">
          <mxGeometry width="50" height="50" relative="1" as="geometry">
            <mxPoint x="290" y="150" as="sourcePoint" />
            <mxPoint x="450" y="150" as="targetPoint" />
          </mxGeometry>
        </mxCell>
        <mxCell id="RA_EbAn50JD2a9bJy-9p-12" value="" style="endArrow=none;html=1;rounded=0;strokeWidth=2;strokeColor=#030303;endFill=0;" edge="1" parent="1" source="RA_EbAn50JD2a9bJy-9p-10" target="RA_EbAn50JD2a9bJy-9p-8">
          <mxGeometry width="50" height="50" relative="1" as="geometry">
            <mxPoint x="290" y="150" as="sourcePoint" />
            <mxPoint x="450" y="150" as="targetPoint" />
          </mxGeometry>
        </mxCell>
        <mxCell id="RA_EbAn50JD2a9bJy-9p-13" value="" style="endArrow=none;html=1;rounded=0;strokeWidth=2;strokeColor=#030303;endFill=0;" edge="1" parent="1" source="RA_EbAn50JD2a9bJy-9p-4" target="RA_EbAn50JD2a9bJy-9p-8">
          <mxGeometry width="50" height="50" relative="1" as="geometry">
            <mxPoint x="204" y="216" as="sourcePoint" />
            <mxPoint x="296" y="164" as="targetPoint" />
          </mxGeometry>
        </mxCell>
        <mxCell id="RA_EbAn50JD2a9bJy-9p-14" value="" style="ellipse;whiteSpace=wrap;html=1;aspect=fixed;strokeWidth=2;fillColor=#030303;" vertex="1" parent="1">
          <mxGeometry x="560" y="240" width="40" height="40" as="geometry" />
        </mxCell>
        <mxCell id="RA_EbAn50JD2a9bJy-9p-15" value="" style="ellipse;whiteSpace=wrap;html=1;aspect=fixed;strokeWidth=2;fillColor=#030303;" vertex="1" parent="1">
          <mxGeometry x="680" y="200" width="40" height="40" as="geometry" />
        </mxCell>
        <mxCell id="RA_EbAn50JD2a9bJy-9p-16" value="" style="endArrow=none;html=1;rounded=0;strokeWidth=2;endFill=0;strokeColor=#030303;" edge="1" parent="1" source="RA_EbAn50JD2a9bJy-9p-15" target="RA_EbAn50JD2a9bJy-9p-14">
          <mxGeometry width="50" height="50" relative="1" as="geometry">
            <mxPoint x="579" y="127" as="sourcePoint" />
            <mxPoint x="501" y="253" as="targetPoint" />
          </mxGeometry>
        </mxCell>
        <mxCell id="RA_EbAn50JD2a9bJy-9p-17" value="" style="endArrow=none;html=1;rounded=0;strokeWidth=2;endFill=0;strokeColor=#030303;" edge="1" parent="1" source="RA_EbAn50JD2a9bJy-9p-14" target="RA_EbAn50JD2a9bJy-9p-10">
          <mxGeometry width="50" height="50" relative="1" as="geometry">
            <mxPoint x="691" y="236" as="sourcePoint" />
            <mxPoint x="609" y="264" as="targetPoint" />
          </mxGeometry>
        </mxCell>
        <mxCell id="RA_EbAn50JD2a9bJy-9p-18" value="" style="ellipse;whiteSpace=wrap;html=1;aspect=fixed;strokeWidth=2;fillColor=#030303;" vertex="1" parent="1">
          <mxGeometry x="640" y="360" width="40" height="40" as="geometry" />
        </mxCell>
        <mxCell id="RA_EbAn50JD2a9bJy-9p-19" value="" style="endArrow=none;html=1;rounded=0;strokeWidth=2;endFill=0;strokeColor=#030303;" edge="1" parent="1" source="RA_EbAn50JD2a9bJy-9p-15" target="RA_EbAn50JD2a9bJy-9p-18">
          <mxGeometry width="50" height="50" relative="1" as="geometry">
            <mxPoint x="691" y="236" as="sourcePoint" />
            <mxPoint x="609" y="264" as="targetPoint" />
          </mxGeometry>
        </mxCell>
        <mxCell id="RA_EbAn50JD2a9bJy-9p-20" value="" style="endArrow=none;html=1;rounded=0;strokeWidth=2;endFill=0;strokeColor=#030303;" edge="1" parent="1" source="RA_EbAn50JD2a9bJy-9p-14" target="RA_EbAn50JD2a9bJy-9p-18">
          <mxGeometry width="50" height="50" relative="1" as="geometry">
            <mxPoint x="705" y="249" as="sourcePoint" />
            <mxPoint x="675" y="371" as="targetPoint" />
          </mxGeometry>
        </mxCell>
        <mxCell id="RA_EbAn50JD2a9bJy-9p-21" value="" style="endArrow=none;html=1;rounded=0;strokeWidth=2;endFill=0;strokeColor=#030303;" edge="1" parent="1" source="RA_EbAn50JD2a9bJy-9p-18" target="RA_EbAn50JD2a9bJy-9p-10">
          <mxGeometry width="50" height="50" relative="1" as="geometry">
            <mxPoint x="575" y="283" as="sourcePoint" />
            <mxPoint x="485" y="357" as="targetPoint" />
          </mxGeometry>
        </mxCell>
        <mxCell id="RA_EbAn50JD2a9bJy-9p-22" value="" style="ellipse;whiteSpace=wrap;html=1;aspect=fixed;strokeWidth=2;fillColor=#030303;" vertex="1" parent="1">
          <mxGeometry x="400" y="440" width="40" height="40" as="geometry" />
        </mxCell>
        <mxCell id="RA_EbAn50JD2a9bJy-9p-23" value="" style="endArrow=none;html=1;rounded=0;strokeWidth=2;endFill=0;strokeColor=#030303;" edge="1" parent="1" source="RA_EbAn50JD2a9bJy-9p-18" target="RA_EbAn50JD2a9bJy-9p-22">
          <mxGeometry width="50" height="50" relative="1" as="geometry">
            <mxPoint x="650" y="388" as="sourcePoint" />
            <mxPoint x="490" y="372" as="targetPoint" />
          </mxGeometry>
        </mxCell>
        <mxCell id="RA_EbAn50JD2a9bJy-9p-24" value="" style="endArrow=none;html=1;rounded=0;strokeWidth=2;endFill=0;strokeColor=#030303;" edge="1" parent="1" source="RA_EbAn50JD2a9bJy-9p-10" target="RA_EbAn50JD2a9bJy-9p-22">
          <mxGeometry width="50" height="50" relative="1" as="geometry">
            <mxPoint x="651" y="396" as="sourcePoint" />
            <mxPoint x="449" y="464" as="targetPoint" />
          </mxGeometry>
        </mxCell>
        <mxCell id="RA_EbAn50JD2a9bJy-9p-25" value="" style="endArrow=none;html=1;rounded=0;strokeWidth=2;endFill=0;strokeColor=#030303;" edge="1" parent="1" source="RA_EbAn50JD2a9bJy-9p-8" target="RA_EbAn50JD2a9bJy-9p-22">
          <mxGeometry width="50" height="50" relative="1" as="geometry">
            <mxPoint x="463" y="389" as="sourcePoint" />
            <mxPoint x="437" y="451" as="targetPoint" />
          </mxGeometry>
        </mxCell>
      </root>
    </mxGraphModel>
  </diagram>
</mxfile>
